<?xml version="1.0" encoding="utf-8"?>
<!-- Generator: Adobe Illustrator 19.2.1, SVG Export Plug-In . SVG Version: 6.00 Build 0)  -->
<svg version="1.1" id="alcohol_icons" xmlns="http://www.w3.org/2000/svg" xmlns:xlink="http://www.w3.org/1999/xlink" x="0px"
	 y="0px" viewBox="0 0 64 64" style="enable-background:new 0 0 64 64;" xml:space="preserve">
<style type="text/css">
	.st0{fill:#00496D;}
</style>
<path class="st0" d="M52.3,27.4c-1.5-0.2-2.9-0.3-4.4-0.4l0-4.6c0-0.2,0-0.4-0.1-0.6c1.7-1.4,2.8-3.6,2.8-6c0-4.3-3.5-7.7-7.7-7.7
	c-0.2,0-0.5,0-0.7,0c-1.1-2.3-3.5-4-6.2-4c-0.7,0-1.4,0.1-2.1,0.3c-1.7-2.4-4.4-4-7.5-4c-4.2,0-7.8,2.8-8.8,6.7c-0.2,0-0.4,0-0.6,0
	c-4.7,0-8.6,3.8-8.6,8.6c0,2.9,1.4,5.4,3.6,7l0.1,35.9c0,1.8,1.4,3.4,3.2,3.7c4.9,0.7,9.8,1.1,14.7,1.1c4.9,0,9.9-0.4,14.8-1.1
	c1.8-0.3,3.2-1.9,3.2-3.7l0-5.7c1.5-0.1,2.9-0.3,4.4-0.5c1.8-0.3,3.2-1.9,3.2-3.7V31.1C55.5,29.3,54.1,27.6,52.3,27.4z M44.3,59.2
	c-9.4,1.5-19.1,1.5-28.5,0c-0.2,0-0.5-0.3-0.5-0.5l-0.1-34.5c0.6,0.1,1.2,0.2,1.8,0.2c2.4,0,4.5-0.9,6-2.5c1.7,2,4.3,3.3,7.1,3.3
	c3.1,0,5.8-1.5,7.5-3.7c1.4,1.3,3.2,2.1,5.2,2.1c0.6,0,1.2-0.1,1.7-0.2l0,35.4C44.8,58.9,44.5,59.1,44.3,59.2z M52.3,48.7
	c0,0.2-0.2,0.5-0.4,0.5c-1.3,0.2-2.6,0.3-3.9,0.4l0-19.5c1.3,0.1,2.6,0.2,3.9,0.4c0.2,0,0.4,0.3,0.4,0.5V48.7z M37.9,24.6
	c-2.1,2-4.8,3.1-7.7,3.1c-2.7,0-5.2-1-7.2-2.7c-1.4,1-3.1,1.6-4.8,1.8c0,9.5,0,18.9,0,28.4c0,1,0.1,1.2,1.1,1.4c6.6,1,14.8,1,21.4,0
	c1-0.2,1.1-0.4,1.1-1.4c0-9.8,0-19.5,0-29.3C40.4,25.9,39.1,25.4,37.9,24.6z M33.2,35.7c-1.3,0.1-2.5-0.9-2.6-2.2
	c-0.1-1.3,0.9-2.5,2.2-2.6c1.3-0.1,2.5,0.9,2.6,2.2C35.5,34.4,34.5,35.6,33.2,35.7z M37,38c-0.6,0.1-1.1-0.4-1.2-1
	c-0.1-0.6,0.4-1.1,1-1.2c0.6-0.1,1.1,0.4,1.2,1C38,37.4,37.6,37.9,37,38z M38.5,32.3c-0.9,0.1-1.7-0.6-1.7-1.5
	c-0.1-0.9,0.6-1.7,1.5-1.7c0.9-0.1,1.7,0.6,1.7,1.5C40.1,31.4,39.4,32.2,38.5,32.3z"/>
</svg>
