<?xml version="1.0" encoding="utf-8"?>
<!-- Generator: Adobe Illustrator 19.2.1, SVG Export Plug-In . SVG Version: 6.00 Build 0)  -->
<svg version="1.1" id="alcohol_icons" xmlns="http://www.w3.org/2000/svg" xmlns:xlink="http://www.w3.org/1999/xlink" x="0px"
	 y="0px" viewBox="0 0 64 64" style="enable-background:new 0 0 64 64;" xml:space="preserve">
<style type="text/css">
	.st0{fill:#00496D;}
</style>
<path class="st0" d="M32,31.5c9.2-1.4,12-5.7,12.1-10.3H19.9C20,25.8,22.8,30.1,32,31.5z M42.6,1.3L42,0.5H22l-0.6,0.8
	c-0.5,0.6-11.5,15.1-7,26.2c2.1,5.2,7,8.6,14.8,10.3l0.8,22.6c-2.9,0.1-5.7,0.5-8.5,1.2c-0.6,0.2-1.1,0.7-1.1,1.1
	c0,0.4,0.5,0.8,1.2,0.8h21.2c0.6,0,1.2-0.4,1.2-0.8c0-0.4-0.5-0.9-1.1-1.1c-2.8-0.7-5.7-1.1-8.5-1.2l0.8-22.6
	c7.7-1.7,12.7-5.1,14.8-10.3C54.1,16.4,43.1,1.9,42.6,1.3z M45.9,26c-1.7,4.2-6.4,7-13.9,8.2C24.5,33,19.8,30.2,18.1,26
	C15,18.3,21.9,7.6,24,4.6H40C42.1,7.6,49,18.3,45.9,26z"/>
</svg>
